<?xml version="1.0"?><svg id="AB7-combined-shield" xmlns="http://www.w3.org/2000/svg" viewBox="0 0 1024 1228"><g id="combined-shield-master"><g id="shield"><path d="M150.07,926.67c3.8,5.85,7.69,11.66,11.66,17.41,43.14,62.56,95.21,118.12,154.75,165.15,59.65,47.12,125.91,84.93,196.99,112.43,71.08-27.5,137.34-65.31,196.99-112.43,59.54-47.03,111.6-102.59,154.75-165.15,3.32-4.81,6.57-9.66,9.77-14.54l-361.51-409.76-363.4,406.88Z" fill="#c4a24c"></path><path d="M513.48,1212.17c-69.05-27.07-133.46-64.03-191.5-109.88-58.84-46.48-110.3-101.4-152.95-163.23-2.61-3.78-5.23-7.66-7.81-11.56l352.23-394.37,350.42,397.19c-2.01,3-3.99,5.93-5.93,8.74-42.64,61.83-94.1,116.75-152.95,163.23-58.04,45.85-122.46,82.81-191.5,109.88Z" fill="#2c5e8a"></path><path d="M145.5,930.44c-37.82-58.07-67.56-120.98-88.4-186.97-23.48-74.35-35.38-151.69-35.38-229.88V5.1h499.28v518.69l-370.62,414.15-4.88-7.49Z" fill="#c4a24c"></path><path d="M151.25,912.07c-34.13-54.33-61.19-112.82-80.46-173.97-23.03-73.06-34.7-149.07-34.7-225.92V17.71h468.53v498.7l-353.37,395.65Z" fill="#1a3a52"></path><path d="M513.48,8.86v510.94l361.51,409.76c38.45-58.57,68.57-122,89.62-188.8,23.3-73.93,35.11-150.83,35.11-228.58V8.86h-486.24Z" fill="#c4a24c"></path><path d="M522.33,516.45V17.71h468.53v494.46c0,76.84-11.67,152.86-34.7,225.92-19.61,62.23-47.27,121.68-82.27,176.83l-351.56-398.48Z" fill="#1a3a52"></path><path d="M21.33,2.95v509.22c0,78.35,11.9,155.85,35.38,230.36,22.98,72.93,56.68,141.87,100.16,204.91,43.48,63.04,95.95,119.04,155.95,166.43,60.4,47.71,127.55,85.97,199.59,113.72l1.06.41,1.06-.41c72.04-27.75,139.19-66.01,199.59-113.72,60-47.39,112.47-103.39,155.95-166.43,43.48-63.04,77.18-131.99,100.16-204.91,23.48-74.5,35.38-152,35.38-230.36V2.95H21.33ZM857.93,939.06c-42.64,61.83-94.1,116.75-152.95,163.23-58.04,45.85-122.46,82.81-191.5,109.88-69.05-27.07-133.46-64.03-191.5-109.88-58.84-46.48-110.3-101.4-152.95-163.23-2.61-3.78-5.23-7.66-7.81-11.56l352.23-394.37,350.42,397.19c-2.01,3-3.99,5.93-5.93,8.74ZM993.81,512.17c0,77.15-11.72,153.46-34.84,226.81-20.73,65.77-50.31,128.24-88.04,185.98l-357.46-405.17-359.32,402.31c-36.84-56.94-65.79-118.44-86.18-183.13-23.12-73.35-34.84-149.66-34.84-226.81V14.76h960.67v497.41Z" fill="#c4a24c"></path></g><polygon id="shield-cross" points="539.7 767.71 539.7 656.75 487.25 656.75 487.25 767.7 391.79 767.7 391.79 820.15 487.25 820.15 487.25 973.99 539.7 973.99 539.7 820.15 635.16 820.15 635.16 767.71 539.7 767.71" fill="#c4a24c"></polygon><g id="shield-living-waters"><path d="M807.19,986.38c-7.06,8.47-14.31,16.77-21.73,24.9-2.72-.83-5.3-1.68-7.82-2.51-12.64-4.16-24.58-8.08-48.97-8.08h-.15c-24.5.02-36.45,3.97-49.1,8.15-13.64,4.5-29.11,9.62-58.35,9.64h-.16c-29.14,0-44.57-5.08-58.2-9.56-12.63-4.16-24.58-8.08-48.97-8.08h-.14c-24.5.01-36.45,3.96-49.11,8.14-13.64,4.51-29.11,9.62-58.35,9.64h-.16c-29.14,0-44.57-5.08-58.2-9.56-12.63-4.16-24.58-8.08-48.97-8.08h-.15c-24.5.02-36.45,3.97-49.11,8.15-2.5.83-5.06,1.67-7.76,2.5-7.43-8.12-14.67-16.42-21.73-24.88,7.69-1.51,13.87-3.55,20.23-5.66,13.64-4.5,29.11-9.62,58.35-9.64h.16c29.14,0,44.57,5.08,58.2,9.56,12.63,4.16,24.57,8.08,48.97,8.08h.15c24.5-.01,36.45-3.96,49.11-8.14,13.64-4.51,29.11-9.62,58.34-9.64h.16c29.14,0,44.57,5.08,58.2,9.56,12.64,4.16,24.58,8.08,48.97,8.08h.15c24.5-.02,36.45-3.97,49.1-8.15,13.65-4.5,29.11-9.62,58.35-9.64h.17c29.13,0,44.57,5.08,58.19,9.56,6.39,2.1,12.59,4.14,20.32,5.64Z" fill="#fff"></path><path d="M755.45,1042.29c-9.78,9.54-19.84,18.81-30.16,27.8-22.41.33-33.88,4.12-45.98,8.12-13.64,4.51-29.11,9.62-58.35,9.64h-.16c-29.14,0-44.57-5.08-58.2-9.56-12.63-4.16-24.57-8.08-48.97-8.08h-.14c-24.5.02-36.45,3.97-49.11,8.15-13.64,4.5-29.11,9.62-58.35,9.64h-.16c-29.14,0-44.57-5.08-58.2-9.56-12.06-3.96-23.48-7.72-45.7-8.05-10.33-9-20.4-18.27-30.2-27.81,7.51-1.06,16.24-1.72,26.76-1.73h.16c29.14,0,44.57,5.08,58.2,9.56,12.63,4.16,24.57,8.08,48.97,8.08h.15c24.5-.02,36.45-3.97,49.11-8.15,13.64-4.5,29.11-9.62,58.34-9.64h.17c29.13,0,44.57,5.08,58.19,9.56,12.64,4.15,24.58,8.08,48.97,8.08h.15c24.5-.01,36.45-3.96,49.1-8.14,13.65-4.51,29.11-9.62,58.35-9.64h.17c10.58,0,19.35.67,26.89,1.74Z" fill="#fff"></path><path d="M655.64,1123.87c-17.06,11.62-34.59,22.51-52.55,32.65-18.34-1.54-30.01-5.38-40.6-8.86-12.63-4.16-24.57-8.08-48.97-8.08h-.14c-24.5.01-36.45,3.96-49.11,8.14-10.51,3.48-22.1,7.3-40.25,8.89-17.83-10.05-35.22-20.85-52.16-32.36,8.63,2.11,18.91,3.59,33.89,3.59h.15c24.5-.02,36.45-3.97,49.11-8.15,13.64-4.51,29.11-9.62,58.34-9.64h.17c29.13,0,44.57,5.08,58.19,9.56,12.64,4.16,24.58,8.08,48.97,8.08h.15c15.51-.01,25.99-1.6,34.8-3.83Z" fill="#fff"></path></g><g id="shield-lamb"><path d="M360.03,338.71c1.05,1.45,4.31,3.73,3.9,5.77-1.51,6.17-1.71,8.18-6.31,13.09-1.81,1.93-.04,5.41-2.65,11.43-2.21,5.09-5.56,5.55-5.67,8.12-.52,12.43-8.06,16.23-12.44,20.72l-4.91,5.02c-3.39,12.39-3.54,26.38,2.99,36.8,2.33,4.14,3.88,8.23,4.09,13.02.52,12.29,6.16,23.49,12.02,34.03,3.05,5.27,2.21,8.74,4.98,11.87,2.13,2.76,13.3,14.11,5.84,15.62l-15.71-.05c-4.79-.24-4.78-6.21-5.73-9.55-.9-3.87-6.13-3.25-6.7-5.56-4.15-15.03-4.31-27.93-15.7-40.76-4.56-5.31-3.24-13-8.32-18.14-2.01-2.73-5.89-8.5-7.49-11.48,2.09-3.87,3.89-7.23,6.43-10.69,6.35-2.39,13.57-5.33,17.74-10.93l-9,4.56-9.24,2.6c-4.23.95-11.81,16.73-13.96,21-4.04,8.12-2.41,16.06-5.62,21.39-2.17,3.79-5.26,7.97-6.33,12.24l-1.78,7.35c-1.21,6.61-4.47,18.93-1.45,24.96,1.47,3.08,7.74,10.17,3.34,12.97l-16.82.06c-1.44-.43-3.38-1.73-3.49-3.24l-.56-7.57c-.08-1.09-.59-3.27-1.44-3.83-6.31-3.35.02-12.25,1.01-16.87,3.66-10.41,7.11-20.38,5.98-31.58-.37-3.68-.19-7.19.7-10.79,1.35-5.4,2.84-10.93,2.45-16.52-.65-9.42-5.01-17.3.33-29.8-4.47,4.92-5.66,11.59-4.34,18.12l-5.13.79c-6.07.94-8.77-1.62-11.85-.82-9.99,2.59-14.83-1.39-20.84-2.14-4.97-.34-10.29-2.42-14.89-4.22-.4-.15-1-1.09-1.05-1.36,2.39-7.75,1.47-15.82-2.91-22.45l-.37.23c7.01,19.97-7.14,39.6-15.61,56.79-3.69,15.26,4.94,33.53,12.31,47.03,3.08,5.3,2.29,9.73,5.76,13.37,3.34,3.64,11.96,13.11,4.93,14.85l-15.84.05c-4.35-.17-4.77-4.29-5.61-7.48-.37-6.82-6.01-4.01-7.18-9.08-1.91-15.1-10.13-29.49-16.95-42.8l-3.7-7.54c-1.45-2.97-.39-6.67,1.03-9.55,14.95-28.45-28.78-45.44-21.17-73.73-.02-.94-.26-1.09-.68-.16-2.17,5.31-1.82,10.15-.99,15.56,1.66,7.25-6.11,17.27-13.19,13.24-3.41-1.74-1.05-6.69-.6-9.37.48-2.07-5.03-8.39,1.44-25.19,24.89-51.96,67.06-49.08,116.7-40.7,5.63.73,11.24.58,16.9.03,8.96-.86,16.34-5,27.66-4.15,7.74.39,14.41-4.52,20.55-8.59,1.96-1.08,5.54-4.79,7.03-6.47l6.84-6.27c2.05-1.87.21-3.96,2.71-8.42,2.2-3.94,6-6.27,10.48-6.47,1.87-8.3,7.93-9.64,15.36-9.28,5.29-4.45,13.14-5.54,18.38-.12,6.16-2.72,13.71.23,15.76,6.87,12.14,2.6,9.7,10.35,10.87,11.6,7.54,6.5,6.29,13.14,3.5,21.51-.11,9.95.54,20.28,3.88,29.69,2.01,4.01-.67,13.32-5.91,10.66l-.65.07c3.48,2.77-2.45,5.41-4.93,6.05-9.21,1.79-11.32-4.82-15.36-6.75-9.03-3.96-16.31-3.67-22.08-8.86l-.68.19h-.04ZM360.14,305.26c-8.08,10.11-23.03,13.88-35.6,13.72-.53.03-.32-1.97-.02-2.49,5.91-11.9,13.67-22.95,25.65-29.29-14.12,4.34-22.24,15.93-26.75,29.49-6.47,14.03,33.73,4.91,39.65-14.01l-.2-.77-2.73,3.34h0ZM382.24,317.53c-.67-2.12-2.42-3.63-4.42-3.54,3.15,4.86,3.72,9.74,10.65,6.06-1.54-2.8-5.62-.56-6.23-2.51h0ZM360.26,337.92l-.59-.06.59.06ZM402.63,346.83l-1.06-.71.55.99.51-.28ZM402.89,347.16l-.41.42.32.29.4-.36-.3-.35h0Z" fill="#fff"></path><path d="M147.95,508.82c.89,1.65.61,4.61-1.52,5.27l-16.78.09c-6.94-2.06-2.51-11.08-5.85-14.37-1.67-1.65-3.3-3.54-2.82-5.94,1.2-7.39,3.74-14.62,5.37-21.89,2.44-10.3,3.42-25.16,4.21-35.84,5.13-17.8,19.04-3.52,19.9-46.31,7.6,10.7,24.02,26.95,17.25,40.56-4.44,6.24-10.56,7.21-12.26,16.04-.92,4.83-5.25,8.09-7.25,12.96-4.24,10.33-6.03,23.12-6.56,34.47-.31,4.76,4.48,10.81,6.32,14.95h0Z" fill="#fff"></path></g><g id="shield-marian-m"><path d="M760.27,215.97c-2.08,4.15-8.68,9.13-13.62,10.05l-9.51,1.76c-5.55,1.02-11.01,1.62-16.36,3.27l-8.31,2.56-6.74-20.22-5.54-14.9-2.04-4.45c-1.7-3.71-5.75-8.41-4.37-8.25l2.63.31c3.89.45,7.39,1.9,10.84,3.7l3.22,2.13c.97.64,1.77,2.44,1.85,3.71.09,1.37-2.05,2.63-.94,3.71l4.25,4.19c8.82,6.82,23.14,9.87,32.23,3.59,6.63-4.59,9.83-13.9,4.81-17.83-.48-.38-1.92-.29-2.41.05l-1.38.94c-.53.36-1.94-.05-2.34-.77-1.66-2.97-1.51-6.54.78-9.04,1.73-1.9,4.3-2.23,6.7-1.58l-.35-4.18c-.26-3,1.95-9.88,3.61-13.12l5.77-11.19,6.1,11.72c2.57,4.94,4.32,11.75,3,16.88l1.56-.28c3.48-.6,6.3,1.77,7.11,5.1.92,3.77-1.78,7.08-2.89,6.67s-2.98-2.9-5.18-.52c-4.74,5.14,1.13,17.82,11.65,19.83l2.99.57c3.44.66,7.05.32,10.36-.8l6.58-2.22c3.06-1.03,10.39-6.14,10.94-9.22-.72-.67-1.67-2.49-1.18-3.68.53-1.27,1.43-2.57,2.5-3.28,1.97-1.3,3.93-2.55,6.16-3.14l8.71-2.29c.36-.1,1.45.34,1.21.7l-3.71,5.77-2.02,4.1-2.37,5.62-4.73,13.35-6.06,18.31-12.86-3.74-14.34-2.5-7.9-1.73c-6.62-1.45-12.94-8.52-15.41-15.18l-.53.68-2.43,4.84h-.03Z" fill="#c4a24c"></path><path d="M774.61,243.91l-19.85.05-12.45-.28-5.72-.2c-6.57-.23-12.83-.77-19.37-1.61-2.02-.26-4.25-1.05-4.4-2.07-.05-.34.31-1.27.63-1.41l2.78-1.15,7.15-1.75c23.26-4.49,47.75-4.7,71.18-1.29l13.45,2.71,3.77,1.34c.28.1.72.94.74,1.23.09,1.22-2.33,2.23-4.5,2.45l-12.09,1.19-21.34.81.02-.02Z" fill="#c4a24c"></path><g id="marian-m"><path d="M837.11,349.11l-.41-8.31-.47-12.06-.05-28.85.36-7.76-1.48,2.13-3.74,7.13-4.84,9.64-6.27,12.97-3.61,7.6-2.06,4.4-2.81,6.04-10.35,23.3-2.8,6.45-4.42,10.44-5.78,13.91c-.13.3-.58,1.03-.68,1.16l-5.02-.99-8.75-1.72,3.79-8.7c.11-.25.15-1.04-.04-1.11l-.74-.25-5.64,2.58,6.52-16.03,10.44-24.88,14.63-32.65,5.87-12.22,2.92-5.89,1.9-3.76,8.94-16.36c3.01-5.5,6.4-10.52,10.18-15.5,6.69-8.83,14.8-15.95,25.59-18.96,4.85-1.36,9.72-2.16,14.74-2.15h10.98l16.54.18c.66,0,1.47,1.14,1.45,1.8-.02.59-.93,1.56-1.62,1.61-6.61.48-12.7,2.14-18.45,5.32-7.93,4.4-13.02,11.62-15.95,20.17l-2.96,11.89c-1.53,9-2.38,17.85-2.38,27.03v14.85l.39,14.5c.5,17.82,1.9,35.17,3.77,52.92l3.64,28.88,2.4,14.48,5.99,28.05c2.13,9.94,8.23,27.86,14.56,35.23l2.42,2.81c3.05,3.54,6.97,6.03,11.21,8.03,4.95,2.33,10.03,3.55,15.56,4.07.73.07,1.55.67,1.81,1.21s-.23,2.21-1.1,2.21h-84.98c-.7,0-1.35-1.41-1.21-1.93.19-.72,1.01-1.41,1.91-1.5,7.36-.69,14.68-3.35,16.76-10.52.81-2.78,1.4-5.74,1.13-8.66l-.85-9.28-4.17-25.28c-3.28-19.82-6.33-39.25-8.58-59.21-1.83-16.17-3.34-31.97-4.16-48.46l-.04-.02Z" fill="#fff"></path><path d="M767.13,426.49l-1.12-3.49,1.86-11.71,8.44,4.22c.46.23,1.06-1.2.8-1.37l-3.64-8.26.2-.74,9.18-1.67,2.91-.53-2.37,5.87-7.26,18.37-4.44,12.05-.31.82c-.06.16-.37-.31-.43-.53l-1.65-5.63-2.18-7.37h0Z" fill="#fff"></path><path d="M685.86,292.33l.3,5.17c.66,11.69.49,23.14-.04,34.85l-.8,17.75c-.91,20.18-2.49,39.95-5,59.97l-4.03,32.14-5.1,35.44-1.22,12.48c-.28,2.83.19,5.7.84,8.43,1.92,8.13,9.61,11.35,17.78,11.92.65.05,1.82.78,1.79,1.35s-.1,1.17-.2,1.48c-.13.37-1.11.65-1.71.65h-83.81c-.74,0-1.34-1.41-1.24-1.94s.91-1.37,1.57-1.44c11.62-1.2,21.7-5.22,29.04-14.33,2.72-3.39,5.18-6.88,6.71-10.94l4.85-12.81,6.53-26.36,5.02-29.1c2.97-21.83,5.18-43.36,6.18-65.33l.44-9.7.36-11.24.19-20.05-.31-10.86c-.19-6.52-.67-12.86-2.07-19.21l-1.87-8.54c-1.46-6.66-5.17-13.99-9.87-19.03-3.3-3.52-7.38-6.01-11.85-7.81-4.47-1.79-8.98-2.58-13.86-3.1-.59-.06-1.36-1.3-1.27-1.88.1-.65,1.1-1.45,1.8-1.45l10.52-.1,17.4-.09c5.83-.03,11.5.87,17.03,2.71,4.93,1.63,11.57,5.44,15.03,9.01l5.74,5.9,5.3,6.78c5.26,6.73,9.37,14,13.27,21.64l12.44,24.42,3.87,8.2,4.18,9.06,2.65,5.82,14.71,35.4,2.24,5.84,5.02,13.87-1.2-.45-4.28-2.01c-.24-.11-.86-.21-1.07-.21-.29,0-.71.86-.59,1.13l3.37,7.95.32.76s-.32.06-.62.12l-7.28,1.47-7.78,1.54-1.87.5-2.61-6.5-12.55-30.33-5.38-12.32-5.53-12.52-6.39-14.08-2.04-4.41-2.95-6.27-6.2-12.71-3.19-6.08c-.06-.12-.8-.63-.71-.56v.02Z" fill="#fff"></path><path d="M805.96,511.54c-.53-2.76-4.17-1.43-9.49-3.75-3.59-1.56-6.86-3.93-8.67-7.39l-3.85-7.39-2.9-8.34-4.01-14.89-11.87-41.44c-.09-.05-.25-.13-.34-.17l-1.37,5.84c-.08.35-.89,1.26-1.18,1.2-.45-.08-1.03-1.14-1.13-1.66l-2.71-15.43-.94-5.38c-.05-.26-.39-1.08-.45-1.14l-7.86,3.74c-.27.13-1.08,0-1.11-.22-.02-.15-.02-.69.07-.92l3.53-8.94-16.65-3.08,1.97,5.03,15.62,41.79h0l8.38,21.24c.07,0,.11,0,.05.02l3.26,9.91,6.03,15.66,2.99,6.24c2.47,5.16,8.08,11.91,13.78,12l7.78.12,9.24-.44c.98-.05,2.05-1.21,1.86-2.2h-.02Z" fill="#fff"></path><path d="M758.86,471.46h0l-7.3-18.52-4.31,14.85-4.7,16.96-3.58,9.67c-2.23,6.03-8.05,12.99-14.54,14.33l-4.69.97c-1.05.22-1.97,1.26-1.88,2.27.1,1.05,1.18,1.86,2.36,1.89l14.09.32c3.12.07,6.11-1.17,8.32-3.3,1.45-1.4,2.9-2.84,3.83-4.62l5.11-9.74,5.14-14.09,2.91-9.09-.75-1.9Z" fill="#fff"></path></g><g id="star-arch"><polygon points="653.33 200.52 643.84 194.28 634.44 200.66 637.44 189.7 628.46 182.73 639.81 182.2 643.67 171.5 647.69 182.14 659.03 182.5 650.17 189.6 653.33 200.52" fill="#c4a24c"></polygon><polygon points="693.76 150.17 684.26 143.93 674.86 150.31 677.86 139.36 668.89 132.39 680.23 131.85 684.08 121.16 688.1 131.79 699.46 132.15 690.59 139.26 693.76 150.17" fill="#c4a24c"></polygon><polygon points="888.94 197.04 879.45 190.8 870.04 197.19 873.04 186.23 864.07 179.26 875.42 178.73 879.27 168.04 883.29 178.67 894.65 179.03 885.78 186.14 888.94 197.04" fill="#c4a24c"></polygon><polygon points="848.06 148.67 838.56 142.43 829.16 148.82 832.17 137.85 823.19 130.88 834.54 130.35 838.4 119.66 842.41 130.29 853.76 130.66 844.89 137.75 848.06 148.67" fill="#c4a24c"></polygon><polygon points="772.64 123.47 763.14 117.23 753.74 123.62 756.74 112.65 747.76 105.68 759.11 105.15 762.96 94.46 766.98 105.09 778.34 105.46 769.47 112.56 772.64 123.47" fill="#c4a24c"></polygon></g><polygon id="marian-star" points="774.21 412.24 764.73 406.25 762.26 424.38 759.78 406.25 750.3 412.24 756.29 402.76 738.16 400.28 756.29 397.81 750.3 388.33 759.78 394.31 762.26 376.18 764.73 394.31 774.21 388.33 768.23 397.81 786.36 400.28 768.23 402.76 774.21 412.24" fill="#c4a24c"></polygon></g></g></svg>