<?xml version="1.0"?>
<svg id="AB6-circle-icon" xmlns="http://www.w3.org/2000/svg" version="1.1" viewBox="0 0 1024 1024">
  
  <g id="circle-primary">
    <circle id="circle-bg" cx="512" cy="512" r="480" fill="#2c5e8a"></circle>
    <g id="circle-icons">
      <g id="lockup-m">
        <g id="crown-stars-accent">
          <path d="M761.44,414.25c-1.61,3.21-6.72,7.07-10.55,7.78l-7.36,1.36c-4.29.8-8.53,1.26-12.67,2.53l-6.43,1.98-5.22-15.65-4.29-11.54-1.58-3.44c-1.32-2.87-4.45-6.51-3.39-6.38l2.03.24c3.01.35,5.72,1.47,8.39,2.87l2.49,1.64c.76.5,1.37,1.89,1.43,2.87.07,1.06-1.58,2.04-.73,2.87l3.29,3.25c6.82,5.28,17.92,7.65,24.96,2.78,5.14-3.55,7.61-10.76,3.72-13.81-.38-.29-1.49-.22-1.87.04l-1.07.73c-.41.28-1.5-.04-1.81-.59-1.29-2.3-1.17-5.06.6-7,1.34-1.47,3.33-1.73,5.19-1.23l-.28-3.24c-.2-2.32,1.51-7.65,2.8-10.16l4.46-8.67,4.73,9.07c1.99,3.82,3.35,9.1,2.32,13.07l1.21-.21c2.7-.47,4.88,1.37,5.5,3.95.71,2.92-1.38,5.48-2.24,5.16s-2.31-2.25-4.01-.41c-3.67,3.98.87,13.79,9.02,15.36l2.31.44c2.66.51,5.46.25,8.03-.62l5.1-1.72c2.37-.8,8.05-4.76,8.47-7.14-.56-.52-1.3-1.93-.91-2.85.41-.99,1.11-1.99,1.94-2.54,1.53-1,3.04-1.98,4.77-2.43l6.74-1.78c.28-.07,1.12.26.94.54l-2.87,4.47-1.56,3.18-1.84,4.35-3.66,10.33-4.69,14.18-9.96-2.9-11.1-1.94-6.12-1.34c-5.13-1.12-10.02-6.6-11.94-11.75l-.41.52-1.88,3.75v.03Z" fill="#c4a24c"></path>
          <path d="M772.54,435.89l-15.37.04-9.64-.22-4.43-.16c-5.08-.18-9.93-.59-15-1.25-1.56-.2-3.29-.81-3.41-1.6-.04-.27.24-.98.49-1.09l2.15-.89,5.53-1.35c18.01-3.48,36.97-3.65,55.12-1l10.42,2.09,2.92,1.04c.22.08.55.72.57.95.07.95-1.81,1.73-3.48,1.9l-9.36.92-16.52.63h0Z" fill="#c4a24c"></path>
          <polygon points="772.24 566.21 764.89 561.57 762.98 575.61 761.06 561.57 753.72 566.21 758.36 558.87 744.32 556.95 758.36 555.04 753.72 547.69 761.06 552.33 762.98 538.29 764.89 552.33 772.24 547.69 767.6 555.04 781.64 556.95 767.6 558.87 772.24 566.21" fill="#c4a24c"></polygon>
          <polygon points="678.64 402.28 671.29 397.45 664.01 402.39 666.34 393.91 659.39 388.51 668.17 388.1 671.16 379.82 674.27 388.05 683.06 388.33 676.19 393.83 678.64 402.28" fill="#c4a24c"></polygon>
          <polygon points="709.94 363.3 702.59 358.47 695.31 363.41 697.63 354.93 690.68 349.53 699.47 349.12 702.45 340.84 705.56 349.07 714.36 349.35 707.49 354.85 709.94 363.3" fill="#c4a24c"></polygon>
          <polygon points="861.06 399.6 853.71 394.77 846.43 399.71 848.75 391.22 841.8 385.83 850.59 385.41 853.58 377.14 856.68 385.37 865.48 385.65 858.61 391.15 861.06 399.6" fill="#c4a24c"></polygon>
          <polygon points="829.41 362.14 822.06 357.31 814.78 362.25 817.1 353.77 810.15 348.37 818.94 347.96 821.93 339.68 825.03 347.91 833.83 348.19 826.96 353.69 829.41 362.14" fill="#c4a24c"></polygon>
          <polygon points="771.01 342.63 763.66 337.8 756.38 342.74 758.7 334.26 751.75 328.86 760.54 328.45 763.52 320.17 766.63 328.4 775.43 328.68 768.56 334.18 771.01 342.63" fill="#c4a24c"></polygon>
        </g>
        <g id="m-letterform">
          <path d="M820.93,517.33l-.32-6.43-.36-9.34-.04-22.33.28-6.01-1.14,1.65-2.9,5.52-3.75,7.46-4.85,10.04-2.8,5.88-1.59,3.4-2.17,4.68-8.01,18.04-2.17,4.99-3.43,8.09-4.47,10.77c-.1.23-.45.8-.53.9l-3.89-.77-6.78-1.34,2.93-6.74c.08-.19.11-.81-.03-.86l-.58-.19-4.37,1.99,5.04-12.41,8.08-19.27,11.33-25.28,4.54-9.47,2.26-4.56,1.47-2.91,6.92-12.66c2.33-4.26,4.95-8.14,7.88-12.01,5.18-6.83,11.46-12.35,19.81-14.68,3.76-1.05,7.53-1.67,11.42-1.66h8.5l12.81.14c.51,0,1.14.88,1.12,1.39-.02.46-.72,1.21-1.26,1.25-5.12.37-9.83,1.65-14.28,4.12-6.14,3.4-10.08,9-12.34,15.61l-2.3,9.21c-1.18,6.96-1.84,13.83-1.85,20.92v11.5l.31,11.23c.39,13.8,1.47,27.23,2.92,40.98l2.82,22.36,1.86,11.21,4.64,21.72c1.64,7.7,6.37,21.57,11.27,27.27l1.88,2.18c2.36,2.74,5.4,4.67,8.68,6.22,3.83,1.8,7.77,2.75,12.05,3.16.56.05,1.2.52,1.4.93s-.17,1.71-.85,1.71h-65.8c-.54,0-1.04-1.09-.94-1.49.15-.55.79-1.09,1.48-1.16,5.7-.54,11.36-2.59,12.97-8.15.62-2.15,1.08-4.45.88-6.7l-.65-7.19-3.23-19.57c-2.53-15.35-4.9-30.39-6.65-45.85-1.42-12.52-2.59-24.75-3.23-37.51v.02Z" fill="#fff"></path>
          <path d="M766.75,577.24l-.87-2.7,1.44-9.07,6.54,3.27c.36.18.83-.93.62-1.06l-2.82-6.39.15-.57,7.11-1.29,2.26-.41-1.84,4.54-5.62,14.22-3.44,9.32-.23.63c-.05.12-.29-.25-.33-.41l-1.28-4.36-1.68-5.71h0Z" fill="#fff"></path>
          <path d="M703.83,473.37l.23,4c.51,9.05.38,17.92-.03,26.99l-.62,13.74c-.7,15.62-1.93,30.93-3.87,46.43l-3.12,24.88-3.95,27.44-.94,9.66c-.21,2.19.15,4.41.65,6.53,1.49,6.3,7.44,8.78,13.76,9.23.5.04,1.41.6,1.38,1.05s-.08.91-.16,1.14c-.1.29-.86.5-1.33.5h-64.87c-.57,0-1.04-1.09-.96-1.5s.7-1.06,1.22-1.11c9-.93,16.81-4.04,22.48-11.1,2.1-2.62,4.01-5.33,5.2-8.47l3.76-9.92,5.05-20.41,3.89-22.53c2.3-16.9,4.01-33.57,4.79-50.58l.34-7.51.28-8.7.15-15.52-.24-8.41c-.15-5.04-.52-9.96-1.6-14.87l-1.45-6.61c-1.13-5.16-4-10.83-7.64-14.73-2.55-2.73-5.72-4.66-9.17-6.04s-6.95-1.99-10.73-2.4c-.46-.05-1.05-1.01-.98-1.46.08-.5.85-1.12,1.4-1.12l8.14-.07,13.48-.07c4.51-.02,8.9.67,13.18,2.1,3.82,1.27,8.96,4.21,11.64,6.97l4.44,4.57,4.1,5.25c4.07,5.21,7.25,10.83,10.27,16.76l9.63,18.91,2.99,6.35,3.24,7.01,2.05,4.51,11.39,27.41,1.74,4.52,3.89,10.74-.93-.35-3.31-1.55c-.18-.09-.67-.16-.83-.16-.22,0-.55.66-.46.87l2.61,6.16.25.59s-.25.05-.48.09l-5.64,1.13-6.02,1.19-1.45.39-2.02-5.03-9.72-23.48-4.17-9.54-4.28-9.69-4.94-10.91-1.58-3.41-2.28-4.85-4.8-9.84-2.47-4.71c-.05-.09-.62-.49-.55-.43l-.03-.03Z" fill="#fff"></path>
          <path d="M796.82,643.09c-.41-2.14-3.23-1.11-7.35-2.9-2.78-1.21-5.32-3.04-6.71-5.72l-2.98-5.73-2.25-6.45-3.1-11.53-9.19-32.09c-.07-.04-.19-.1-.27-.13l-1.06,4.52c-.06.27-.69.97-.91.93-.35-.06-.8-.88-.87-1.29l-2.1-11.95-.73-4.17c-.04-.2-.3-.84-.35-.89l-6.09,2.9c-.2.1-.84,0-.86-.17-.01-.11-.01-.54.05-.71l2.73-6.92-12.9-2.39,1.52,3.9,12.09,32.36h0l6.49,16.44c.06,0,.09,0,.04.02l2.52,7.67,4.67,12.13,2.31,4.83c1.91,3.99,6.25,9.22,10.67,9.29l6.02.09,7.16-.34c.76-.04,1.59-.93,1.44-1.71h0Z" fill="#fff"></path>
          <path d="M764.98,578.54h0c-.09-.05-.06-.03,0,0Z" fill="#fff"></path>
          <path d="M760.34,612.06h0l-5.66-14.34-3.33,11.5-3.64,13.13-2.77,7.49c-1.73,4.67-6.23,10.06-11.26,11.1l-3.64.75c-.81.17-1.52.97-1.45,1.76.07.82.92,1.44,1.83,1.46l10.91.25c2.42.06,4.73-.91,6.44-2.55,1.12-1.08,2.25-2.2,2.97-3.58l3.96-7.54,3.98-10.91,2.26-7.04-.58-1.47h-.02Z" fill="#fff"></path>
        </g>
      </g>
      <g id="lockup-lamb">
        <path d="M324.95,507.23c.82,1.14,3.39,2.93,3.07,4.53-1.19,4.85-1.35,6.43-4.96,10.29-1.42,1.52-.03,4.25-2.08,8.98-1.74,4-4.37,4.36-4.45,6.38-.41,9.77-6.33,12.76-9.78,16.29l-3.86,3.95c-2.66,9.74-2.78,20.74,2.35,28.92,1.84,3.26,3.05,6.46,3.21,10.23.41,9.66,4.85,18.46,9.45,26.74,2.4,4.14,1.74,6.87,3.91,9.33,1.67,2.17,10.45,11.09,4.59,12.27l-12.35-.04c-3.77-.19-3.75-4.88-4.51-7.5-.71-3.04-4.82-2.55-5.26-4.37-3.26-11.81-3.39-21.95-12.34-32.04-3.58-4.17-2.55-10.22-6.54-14.26-1.58-2.14-4.63-6.68-5.89-9.02,1.64-3.04,3.06-5.68,5.05-8.4,4.99-1.88,10.66-4.19,13.95-8.59l-7.07,3.58-7.26,2.04c-3.33.75-9.28,13.15-10.97,16.5-3.17,6.39-1.89,12.62-4.42,16.81-1.71,2.98-4.14,6.26-4.98,9.62l-1.4,5.78c-.95,5.2-3.51,14.88-1.14,19.62,1.15,2.42,6.09,7.99,2.63,10.19l-13.22.05c-1.14-.34-2.66-1.36-2.74-2.55l-.44-5.95c-.06-.86-.47-2.57-1.13-3.01-4.96-2.63.02-9.63.8-13.26,2.88-8.18,5.59-16.01,4.7-24.82-.29-2.89-.15-5.65.56-8.48,1.06-4.24,2.23-8.59,1.93-12.98-.51-7.4-3.94-13.59.26-23.42-3.51,3.87-4.44,9.11-3.41,14.24l-4.03.62c-4.77.73-6.89-1.27-9.31-.65-7.85,2.04-11.65-1.09-16.39-1.68-3.91-.27-8.09-1.9-11.7-3.32-.32-.12-.79-.86-.82-1.07,1.88-6.09,1.15-12.44-2.29-17.64l-.29.18c5.51,15.7-5.61,31.13-12.27,44.64-2.9,11.99,3.89,26.35,9.67,36.96,2.42,4.16,1.8,7.65,4.52,10.51,2.63,2.86,9.4,10.31,3.87,11.67l-12.45.04c-3.42-.13-3.75-3.37-4.41-5.87-.29-5.36-4.72-3.15-5.65-7.14-1.5-11.87-7.96-23.18-13.33-33.64l-2.91-5.92c-1.14-2.33-.31-5.24.81-7.5,11.75-22.36-22.62-35.71-16.64-57.95,0-.73-.2-.86-.54-.13-1.71,4.17-1.43,7.98-.78,12.23,1.3,5.7-4.8,13.57-10.37,10.41-2.67-1.36-.83-5.25-.47-7.36.38-1.63-3.96-6.6,1.13-19.8,19.57-40.84,52.7-38.57,91.72-31.99,4.42.58,8.83.46,13.28.03,7.05-.68,12.84-3.93,21.74-3.26,6.09.31,11.33-3.55,16.15-6.75,1.54-.85,4.35-3.76,5.52-5.09l5.38-4.93c1.61-1.47.17-3.11,2.13-6.62,1.73-3.1,4.72-4.93,8.24-5.08,1.47-6.52,6.23-7.58,12.08-7.3,4.16-3.5,10.32-4.36,14.44-.1,4.84-2.14,10.77.18,12.39,5.4,9.55,2.04,7.62,8.13,8.54,9.11,5.93,5.11,4.95,10.33,2.75,16.91-.09,7.82.43,15.94,3.05,23.34,1.58,3.15-.52,10.47-4.65,8.38l-.52.06c2.74,2.18-1.93,4.25-3.88,4.75-7.24,1.41-8.9-3.79-12.07-5.3-7.1-3.12-12.82-2.88-17.35-6.96l-.54.15h0ZM325.04,480.93c-6.35,7.95-18.1,10.91-27.98,10.79-.42.03-.25-1.55-.02-1.96,4.65-9.35,10.74-18.04,20.16-23.02-11.1,3.41-17.48,12.53-21.03,23.18-5.08,11.03,26.51,3.86,31.17-11.01l-.16-.6-2.15,2.62h0ZM342.42,490.58c-.52-1.66-1.9-2.85-3.47-2.78,2.47,3.82,2.92,7.66,8.37,4.76-1.21-2.2-4.42-.44-4.9-1.98ZM325.14,506.6l-.46-.04.46.04ZM358.44,513.6l-.83-.56.43.78.4-.22h0ZM358.64,513.86l-.32.33.25.23.31-.29-.24-.27Z" fill="#fff"></path>
        <path d="M158.27,640.92c.7,1.3.48,3.62-1.2,4.14l-13.19.07c-5.45-1.62-1.97-8.71-4.6-11.3-1.32-1.29-2.6-2.78-2.21-4.67.94-5.81,2.94-11.49,4.22-17.2,1.92-8.09,2.69-19.77,3.31-28.17,4.03-13.99,14.96-2.77,15.64-36.4,5.97,8.4,18.88,21.18,13.56,31.88-3.49,4.91-8.3,5.66-9.64,12.61-.73,3.79-4.13,6.36-5.7,10.18-3.33,8.12-4.74,18.17-5.16,27.09-.24,3.74,3.52,8.5,4.97,11.75v.02Z" fill="#fff"></path>
      </g>
      <polygon id="lockup-cross" points="596.33 446.93 519.61 446.93 519.61 370.21 494.63 370.21 494.63 446.93 417.91 446.93 417.91 471.91 494.63 471.91 494.63 637.84 519.61 637.84 519.61 471.91 596.33 471.91 596.33 446.93" fill="#c4a24c"></polygon>
    </g>
  </g>
</svg>