<?xml version="1.0"?><svg id="AB2-ic-marian-m" xmlns="http://www.w3.org/2000/svg" viewBox="0 0 1024 1024"><g id="m-white"><g id="crown-stars-accent"><path d="M506.81,339.39c-4.06,8.11-16.96,17.85-26.61,19.63l-18.57,3.44c-10.84,2.01-21.53,3.17-31.96,6.39l-16.23,5-13.18-39.49-10.83-29.12-3.98-8.69c-3.32-7.25-11.22-16.42-8.54-16.11l5.13.6c7.59.89,14.44,3.71,21.16,7.24l6.28,4.15c1.91,1.26,3.46,4.77,3.62,7.24.17,2.67-3.99,5.14-1.85,7.25l8.3,8.19c17.22,13.33,45.21,19.29,62.97,7.03,12.96-8.95,19.21-27.15,9.4-34.85-.95-.74-3.75-.57-4.71.09l-2.7,1.85c-1.04.72-3.79-.1-4.57-1.49-3.25-5.8-2.95-12.77,1.51-17.66,3.39-3.71,8.4-4.36,13.1-3.09l-.7-8.18c-.5-5.86,3.8-19.3,7.06-25.64l11.26-21.87,11.93,22.9c5.03,9.65,8.45,22.95,5.86,32.98l3.06-.53c6.81-1.18,12.31,3.46,13.88,9.96,1.78,7.36-3.48,13.83-5.66,13.03s-5.82-5.67-10.11-1.02c-9.27,10.04,2.21,34.8,22.77,38.75l5.84,1.12c6.72,1.29,13.77.64,20.25-1.55l12.86-4.35c5.98-2.02,20.3-12.01,21.36-18.01-1.41-1.31-3.27-4.86-2.3-7.2,1.03-2.49,2.79-5.03,4.89-6.4,3.85-2.53,7.67-4.99,12.04-6.14l17.01-4.49c.71-.19,2.82.66,2.37,1.37l-7.25,11.27-3.94,8.02-4.64,10.97-9.25,26.08-11.84,35.77-25.12-7.31-28.01-4.89-15.44-3.38c-12.93-2.83-25.29-16.65-30.12-29.64l-1.04,1.32-4.74,9.47Z" fill="#c4a24c"></path><path d="M534.82,393.98l-38.79.09-24.32-.54-11.17-.39c-12.82-.45-25.07-1.5-37.84-3.15-3.93-.51-8.3-2.05-8.6-4.04-.1-.67.6-2.48,1.24-2.75l5.43-2.26,13.96-3.41c45.43-8.77,93.29-9.2,139.07-2.53l26.29,5.28,7.37,2.62c.54.19,1.4,1.82,1.44,2.4.18,2.39-4.56,4.37-8.79,4.78l-23.61,2.32-41.68,1.58Z" fill="#c4a24c"></path><polygon points="534.06 722.81 515.52 711.11 510.69 746.53 505.87 711.11 487.33 722.81 499.04 704.28 463.62 699.45 499.04 694.62 487.33 676.09 505.87 687.79 510.69 652.37 515.52 687.79 534.06 676.09 522.35 694.62 557.77 699.45 522.35 704.28 534.06 722.81" fill="#c4a24c"></polygon><polygon points="297.9 309.18 279.35 296.99 260.98 309.46 266.84 288.05 249.31 274.44 271.48 273.4 279.01 252.51 286.85 273.28 309.04 273.99 291.71 287.86 297.9 309.18" fill="#c4a24c"></polygon><polygon points="376.87 210.83 358.31 198.63 339.95 211.11 345.81 189.69 328.27 176.08 350.45 175.04 357.98 154.16 365.82 174.92 388.01 175.63 370.68 189.51 376.87 210.83" fill="#c4a24c"></polygon><polygon points="758.18 302.41 739.63 290.22 721.27 302.69 727.13 281.28 709.59 267.66 731.77 266.62 739.29 245.74 747.14 266.51 769.33 267.21 752 281.09 758.18 302.41" fill="#c4a24c"></polygon><polygon points="678.32 207.9 659.77 195.71 641.4 208.18 647.26 186.77 629.73 173.15 651.9 172.11 659.43 151.23 667.27 171.99 689.46 172.7 672.14 186.58 678.32 207.9" fill="#c4a24c"></polygon><polygon points="530.96 158.67 512.41 146.48 494.05 158.95 499.91 137.54 482.37 123.93 504.55 122.88 512.07 102 519.92 122.77 542.1 123.47 524.78 137.35 530.96 158.67" fill="#c4a24c"></polygon></g><g id="m-letterform"><path d="M656.92,599.48l-.81-16.23-.92-23.56-.09-56.35.72-15.16-2.88,4.15-7.32,13.92-9.46,18.82-12.24,25.34-7.06,14.84-4.01,8.59-5.48,11.81-20.22,45.51-5.47,12.6-8.64,20.4-11.28,27.17c-.24.58-1.14,2.01-1.33,2.26l-9.81-1.94-17.1-3.37,7.39-17c.21-.47.28-2.05-.08-2.17l-1.45-.48-11.02,5.03,12.72-31.32,20.4-48.62,28.58-63.79,11.45-23.88,5.71-11.5,3.72-7.34,17.45-31.95c5.87-10.76,12.49-20.55,19.87-30.29,13.07-17.24,28.93-31.16,49.99-37.03,9.48-2.64,19-4.21,28.81-4.2h21.46s32.31.35,32.31.35c1.29.01,2.87,2.23,2.83,3.51-.04,1.15-1.81,3.05-3.17,3.15-12.93.93-24.81,4.17-36.04,10.4-15.49,8.59-25.44,22.7-31.15,39.39l-5.79,23.23c-2.98,17.57-4.65,34.89-4.66,52.79l-.02,29.02.79,28.33c.97,34.82,3.71,68.7,7.36,103.4l7.11,56.41,4.69,28.28,11.71,54.81c4.15,19.42,16.07,54.44,28.44,68.82l4.73,5.5c5.95,6.92,13.62,11.79,21.91,15.69,9.67,4.55,19.6,6.95,30.4,7.97,1.42.13,3.02,1.31,3.54,2.36s-.44,4.33-2.15,4.33h-166.02c-1.37,0-2.64-2.75-2.37-3.76.37-1.39,1.99-2.76,3.74-2.92,14.38-1.36,28.66-6.54,32.74-20.56,1.58-5.42,2.73-11.22,2.21-16.92l-1.65-18.14-8.15-49.37c-6.4-38.73-12.36-76.69-16.77-115.69-3.57-31.59-6.53-62.45-8.14-94.66Z" fill="#fff"></path><path d="M520.21,750.65l-2.2-6.82,3.64-22.89,16.51,8.25c.9.45,2.08-2.35,1.56-2.68l-7.12-16.13.38-1.44,17.94-3.26,5.7-1.04-4.63,11.46-14.18,35.87-8.68,23.53-.59,1.59c-.12.31-.73-.62-.85-1.03l-3.23-11.01-4.25-14.4Z" fill="#fff"></path><path d="M361.45,488.55l.57,10.09c1.29,22.84.95,45.21-.08,68.1l-1.56,34.66c-1.78,39.42-4.86,78.05-9.76,117.16l-7.87,62.78-9.96,69.24-2.38,24.38c-.54,5.53.37,11.13,1.63,16.47,3.76,15.89,18.76,22.16,34.73,23.28,1.26.09,3.55,1.52,3.49,2.64s-.2,2.29-.39,2.88c-.24.74-2.17,1.27-3.35,1.27l-163.69-.02c-1.44,0-2.62-2.72-2.43-3.77s1.77-2.67,3.08-2.81c22.71-2.35,42.4-10.18,56.72-28,5.31-6.61,10.12-13.44,13.12-21.37l9.48-25.02,12.75-51.5,9.81-56.86c5.8-42.65,10.11-84.7,12.08-127.62l.87-18.95.72-21.95.37-39.17-.62-21.21c-.37-12.73-1.31-25.12-4.03-37.53l-3.66-16.68c-2.85-13.01-10.09-27.33-19.28-37.16-6.44-6.89-14.43-11.75-23.15-15.24-8.82-3.53-17.53-5.03-27.08-6.05-1.15-.12-2.65-2.54-2.47-3.68.2-1.27,2.16-2.82,3.52-2.83l20.55-.19,34-.17c11.38-.06,22.46,1.7,33.26,5.29,9.63,3.2,22.6,10.63,29.37,17.59l11.2,11.52,10.35,13.25c10.27,13.16,18.3,27.33,25.92,42.28l24.31,47.7,7.55,16.02,8.17,17.7,5.18,11.37,28.74,69.17,4.38,11.41,9.81,27.09-2.34-.89-8.36-3.92c-.47-.22-1.68-.4-2.1-.4-.55-.01-1.38,1.68-1.16,2.2l6.58,15.54.63,1.48c.02.05-.64.12-1.21.23l-14.24,2.86-15.19,3-3.65.97-5.09-12.68-24.52-59.23-10.51-24.08-10.81-24.46-12.47-27.52-3.99-8.61-5.76-12.24-12.12-24.83-6.23-11.89c-.12-.23-1.56-1.24-1.39-1.09Z" fill="#fff"></path><path d="M596.09,916.8c-1.04-5.39-8.15-2.79-18.54-7.32-7.02-3.06-13.41-7.67-16.93-14.44l-7.52-14.45-5.67-16.29-7.83-29.09-23.19-80.96c-.18-.09-.49-.24-.67-.34l-2.67,11.4c-.16.68-1.73,2.46-2.31,2.36-.89-.16-2.02-2.22-2.2-3.25l-5.3-30.14-1.85-10.52c-.09-.51-.77-2.12-.89-2.24l-15.37,7.31c-.51.24-2.12,0-2.18-.42-.04-.28-.04-1.35.13-1.78l6.9-17.47-32.54-6.02,3.84,9.83,30.51,81.65h.02s16.36,41.49,16.36,41.49c.14-.02.22-.01.09.04l6.36,19.36,11.79,30.6,5.84,12.19c4.82,10.07,15.78,23.26,26.93,23.43l15.19.23,18.06-.87c1.92-.09,4-2.36,3.63-4.31Z" fill="#fff"></path><path d="M515.74,753.92h0c-.23-.12-.16-.08,0,0Z" fill="#fff"></path><path d="M504.05,838.51h-.01s-14.27-36.19-14.27-36.19l-8.41,29.02-9.19,33.12-7,18.89c-4.37,11.79-15.72,25.38-28.41,28l-9.18,1.9c-2.05.42-3.84,2.46-3.67,4.43.18,2.06,2.31,3.64,4.61,3.69l27.53.63c6.1.14,11.94-2.29,16.25-6.43,2.83-2.72,5.67-5.56,7.49-9.02l9.98-19.03,10.04-27.53,5.69-17.78-1.46-3.7Z" fill="#fff"></path></g></g></svg>