<?xml version="1.0"?><svg xmlns="http://www.w3.org/2000/svg" viewBox="100 200 2000 870"><g id="icon-group"><g id="lockup-m"><g id="crown-stars-accent"><path d="M1747.99,421.07c-4.21,8.41-17.58,18.5-27.59,20.35l-19.25,3.57c-11.23,2.08-22.31,3.29-33.13,6.62l-16.83,5.18-13.66-40.93-11.23-30.18-4.13-9c-3.45-7.52-11.63-17.02-8.85-16.7l5.32.63c7.87.93,14.97,3.84,21.94,7.5l6.51,4.3c1.98,1.3,3.59,4.94,3.75,7.51.18,2.77-4.14,5.33-1.92,7.52l8.61,8.49c17.85,13.81,46.86,20,65.27,7.28,13.43-9.28,19.91-28.14,9.74-36.12-.98-.77-3.89-.59-4.88.09l-2.79,1.91c-1.08.74-3.92-.1-4.74-1.55-3.37-6.01-3.06-13.24,1.57-18.31,3.51-3.84,8.71-4.52,13.57-3.21l-.73-8.48c-.52-6.07,3.94-20.01,7.32-26.58l11.67-22.67,12.36,23.73c5.21,10,8.75,23.79,6.08,34.18l3.18-.55c7.06-1.22,12.76,3.59,14.38,10.32,1.84,7.63-3.61,14.33-5.87,13.5s-6.03-5.88-10.48-1.06c-9.61,10.41,2.29,36.07,23.6,40.17l6.05,1.16c6.97,1.34,14.28.66,20.99-1.61l13.33-4.51c6.2-2.09,21.04-12.45,22.15-18.67-1.46-1.36-3.39-5.04-2.39-7.46,1.07-2.58,2.89-5.21,5.06-6.64,3.99-2.63,7.95-5.17,12.48-6.36l17.63-4.65c.74-.19,2.92.69,2.45,1.42l-7.51,11.68-4.08,8.31-4.81,11.37-9.58,27.03-12.28,37.08-26.04-7.58-29.04-5.07-16.01-3.5c-13.41-2.93-26.22-17.26-31.22-30.73l-1.08,1.37-4.92,9.81Z" fill="#fff"></path><path d="M1777.03,477.66l-40.21.09-25.21-.56-11.58-.41c-13.29-.47-25.98-1.55-39.23-3.26-4.08-.53-8.61-2.13-8.91-4.19-.1-.69.62-2.57,1.29-2.85l5.62-2.34,14.47-3.54c47.09-9.09,96.7-9.54,144.16-2.62l27.26,5.48,7.63,2.71c.56.2,1.45,1.88,1.5,2.48.19,2.48-4.72,4.53-9.11,4.96l-24.47,2.41-43.21,1.64Z" fill="#fff"></path><polygon points="1776.23 818.53 1757.02 806.39 1752.01 843.11 1747.01 806.39 1727.8 818.53 1739.93 799.32 1703.21 794.31 1739.93 789.3 1727.8 770.09 1747.01 782.22 1752.01 745.51 1757.02 782.22 1776.23 770.09 1764.1 789.3 1800.81 794.31 1764.1 799.32 1776.23 818.53" fill="#fff"></polygon><polygon points="1531.43 389.76 1512.2 377.13 1493.16 390.05 1499.24 367.86 1481.06 353.75 1504.05 352.67 1511.85 331.02 1519.98 352.55 1542.98 353.28 1525.02 367.66 1531.43 389.76" fill="#fff"></polygon><polygon points="1613.29 287.81 1594.06 275.17 1575.02 288.1 1581.1 265.9 1562.92 251.79 1585.91 250.71 1593.71 229.06 1601.84 250.59 1624.84 251.32 1606.88 265.71 1613.29 287.81" fill="#fff"></polygon><polygon points="2008.56 382.74 1989.33 370.1 1970.29 383.03 1976.37 360.84 1958.19 346.72 1981.17 345.64 1988.98 324 1997.11 345.52 2020.11 346.26 2002.15 360.64 2008.56 382.74" fill="#fff"></polygon><polygon points="1925.77 284.77 1906.54 272.13 1887.5 285.06 1893.58 262.87 1875.4 248.76 1898.39 247.68 1906.19 226.03 1914.32 247.56 1937.32 248.29 1919.36 262.67 1925.77 284.77" fill="#fff"></polygon><polygon points="1773.02 233.74 1753.79 221.11 1734.75 234.03 1740.83 211.84 1722.65 197.73 1745.64 196.65 1753.44 175 1761.57 196.53 1784.57 197.26 1766.61 211.64 1773.02 233.74" fill="#fff"></polygon></g><g id="m-letterform"><path d="M1903.58,690.68l-.84-16.82-.95-24.42-.1-58.41.74-15.71-2.98,4.31-7.58,14.43-9.81,19.5-12.69,26.27-7.31,15.39-4.16,8.9-5.68,12.24-20.96,47.18-5.67,13.06-8.96,21.15-11.7,28.16c-.25.6-1.18,2.08-1.37,2.34l-10.17-2.01-17.73-3.49,7.67-17.62c.21-.49.29-2.12-.09-2.25l-1.5-.49-11.42,5.21,13.19-32.46,21.14-50.4,29.63-66.12,11.87-24.76,5.91-11.92,3.85-7.61,18.09-33.12c6.09-11.15,12.95-21.3,20.6-31.4,13.55-17.87,29.98-32.3,51.82-38.39,9.82-2.74,19.7-4.36,29.86-4.35l22.24.02,33.49.35c1.33.01,2.98,2.31,2.93,3.64-.04,1.19-1.88,3.17-3.29,3.27-13.4.97-25.72,4.32-37.36,10.78-16.06,8.91-26.37,23.53-32.29,40.83l-6.01,24.08c-3.09,18.21-4.82,36.17-4.83,54.73l-.02,30.09.82,29.36c1.01,36.09,3.85,71.22,7.63,107.18l7.37,58.48,4.86,29.32,12.13,56.82c4.3,20.13,16.66,56.43,29.48,71.34l4.91,5.7c6.17,7.17,14.11,12.22,22.71,16.26,10.03,4.71,20.31,7.2,31.52,8.26,1.48.14,3.14,1.36,3.67,2.44s-.46,4.49-2.23,4.49h-172.1c-1.42,0-2.73-2.85-2.46-3.9.38-1.45,2.06-2.86,3.87-3.03,14.91-1.4,29.71-6.78,33.94-21.32,1.63-5.62,2.83-11.63,2.29-17.54l-1.71-18.8-8.45-51.18c-6.63-40.15-12.81-79.49-17.38-119.92-3.7-32.75-6.77-64.73-8.44-98.12Z" fill="#fff"></path><path d="M1761.88,847.38l-2.28-7.07,3.77-23.73,17.11,8.55c.93.47,2.16-2.43,1.62-2.78l-7.38-16.72.4-1.49,18.6-3.38,5.91-1.07-4.8,11.88-14.7,37.18-9,24.39-.61,1.65c-.12.32-.75-.65-.88-1.07l-3.35-11.41-4.41-14.93Z" fill="#fff"></path><path d="M1597.31,575.69l.59,10.46c1.34,23.68.99,46.87-.08,70.59l-1.62,35.93c-1.84,40.86-5.04,80.91-10.12,121.45l-8.15,65.08-10.33,71.77-2.47,25.27c-.56,5.74.38,11.54,1.69,17.07,3.9,16.47,19.45,22.97,36,24.13,1.31.09,3.68,1.58,3.62,2.74s-.21,2.37-.41,2.98c-.25.77-2.25,1.32-3.48,1.32l-169.68-.02c-1.49,0-2.72-2.82-2.52-3.91s1.84-2.77,3.19-2.91c23.54-2.43,43.95-10.55,58.8-29.02,5.5-6.85,10.49-13.93,13.6-22.15l9.82-25.93,13.22-53.39,10.17-58.94c6.01-44.21,10.48-87.8,12.52-132.29l.9-19.65.74-22.75.38-40.6-.64-21.99c-.38-13.19-1.36-26.04-4.18-38.9l-3.79-17.29c-2.96-13.48-10.46-28.33-19.99-38.52-6.68-7.14-14.96-12.18-24-15.8s-18.17-5.21-28.07-6.27c-1.19-.13-2.75-2.64-2.56-3.81.21-1.31,2.24-2.93,3.65-2.94l21.3-.19,35.25-.17c11.8-.06,23.28,1.76,34.48,5.48,9.98,3.32,23.43,11.02,30.44,18.24l11.61,11.94,10.72,13.73c10.65,13.64,18.97,28.33,26.87,43.82l25.2,49.45,7.83,16.6,8.47,18.35,5.37,11.79,29.79,71.7,4.54,11.82,10.16,28.08-2.43-.92-8.67-4.06c-.48-.23-1.74-.41-2.17-.42-.57-.01-1.43,1.74-1.2,2.28l6.82,16.11.65,1.54c.02.06-.66.12-1.25.24l-14.76,2.96-15.75,3.11-3.79,1.01-5.28-13.15-25.42-61.4-10.9-24.96-11.2-25.35-12.93-28.53-4.13-8.93-5.97-12.69-12.56-25.74-6.46-12.32c-.12-.23-1.62-1.28-1.44-1.13Z" fill="#fff"></path><path d="M1840.53,1019.61c-1.08-5.58-8.45-2.89-19.21-7.59-7.28-3.17-13.9-7.96-17.55-14.97l-7.8-14.98-5.88-16.88-8.11-30.15-24.04-83.92c-.18-.09-.5-.25-.69-.35l-2.77,11.82c-.17.71-1.79,2.55-2.39,2.44-.92-.17-2.1-2.3-2.28-3.37l-5.49-31.24-1.92-10.9c-.09-.53-.8-2.2-.92-2.32l-15.94,7.57c-.53.25-2.2,0-2.26-.43-.04-.29-.04-1.4.14-1.85l7.15-18.1-33.73-6.24,3.98,10.19,31.63,84.63h.02s16.96,43.01,16.96,43.01c.15-.02.23-.01.1.05l6.6,20.06,12.22,31.72,6.05,12.63c5,10.44,16.36,24.11,27.91,24.29l15.75.24,18.72-.9c1.99-.1,4.15-2.45,3.76-4.47Z" fill="#fff"></path><path d="M1757.24,850.77h0c-.24-.12-.17-.09,0,0Z" fill="#fff"></path><path d="M1745.12,938.45h-.01s-14.79-37.52-14.79-37.52l-8.72,30.08-9.52,34.33-7.26,19.58c-4.53,12.22-16.3,26.31-29.44,29.02l-9.51,1.97c-2.12.44-3.98,2.55-3.8,4.59.19,2.14,2.4,3.77,4.78,3.82l28.54.65c6.33.14,12.38-2.37,16.84-6.67,2.93-2.82,5.88-5.76,7.76-9.35l10.35-19.73,10.41-28.53,5.9-18.43-1.51-3.84Z" fill="#fff"></path></g></g><g id="lockup-lamb"><path d="M606.34,664.25c2.15,2.99,8.87,7.67,8.02,11.85-3.1,12.69-3.52,16.81-12.98,26.91-3.72,3.98-.08,11.11-5.45,23.5-4.54,10.47-11.43,11.41-11.65,16.69-1.06,25.56-16.56,33.37-25.58,42.6l-10.09,10.32c-6.96,25.46-7.27,54.23,6.16,75.65,4.8,8.51,7.98,16.91,8.4,26.77,1.08,25.26,12.67,48.28,24.71,69.95,6.27,10.82,4.55,17.97,10.24,24.41,4.38,5.66,27.33,29,12,32.1,0,0-32.31-.11-32.31-.11-9.85-.5-9.81-12.77-11.79-19.63-1.85-7.96-12.6-6.67-13.77-11.42-8.53-30.88-8.87-57.42-32.27-83.79-9.37-10.9-6.66-26.73-17.1-37.29-4.14-5.61-12.11-17.47-15.39-23.6,4.3-7.96,8-14.85,13.22-21.98,13.05-4.92,27.89-10.96,36.48-22.46l-18.5,9.37-18.99,5.35c-8.7,1.95-24.27,34.4-28.69,43.16-8.3,16.7-4.95,33.01-11.55,43.96-4.47,7.79-10.82,16.37-13.01,25.16,0,0-3.66,15.11-3.66,15.11-2.49,13.59-9.19,38.91-2.98,51.31,3.02,6.34,15.92,20.91,6.87,26.66l-34.59.13c-2.97-.9-6.95-3.56-7.18-6.67l-1.15-15.55c-.17-2.24-1.22-6.72-2.97-7.88-12.97-6.88.05-25.19,2.09-34.68,7.53-21.4,14.61-41.89,12.28-64.91-.77-7.57-.39-14.79,1.45-22.19,2.77-11.09,5.83-22.47,5.04-33.96-1.33-19.36-10.3-35.56.68-61.26-9.19,10.12-11.62,23.82-8.92,37.25l-10.55,1.62c-12.48,1.92-18.03-3.33-24.36-1.69-20.53,5.33-30.48-2.85-42.86-4.39-10.22-.7-21.16-4.98-30.61-8.68-.83-.31-2.07-2.24-2.15-2.8,4.92-15.93,3.01-32.53-6-46.15l-.75.46c14.41,41.06-14.68,81.42-32.08,116.75-7.58,31.37,10.17,68.93,25.3,96.68,6.33,10.89,4.7,20.01,11.84,27.48,6.87,7.49,24.58,26.96,10.13,30.53,0,0-32.56.1-32.56.1-8.95-.35-9.81-8.81-11.54-15.36-.76-14.02-12.35-8.24-14.77-18.67-3.92-31.04-20.82-60.62-34.85-87.99,0,0-7.6-15.49-7.6-15.49-2.99-6.09-.8-13.71,2.12-19.62,30.74-58.47-59.17-93.41-43.53-151.56-.03-1.92-.53-2.25-1.41-.33-4.46,10.91-3.74,20.87-2.03,31.98,3.41,14.91-12.56,35.5-27.11,27.23-7-3.57-2.17-13.74-1.23-19.25.99-4.25-10.35-17.25,2.96-51.78,51.18-106.81,137.84-100.88,239.89-83.67,11.57,1.51,23.11,1.19,34.74.07,18.43-1.77,33.59-10.27,56.86-8.53,15.92.81,29.62-9.28,42.25-17.65,4.02-2.22,11.39-9.84,14.45-13.31,0,0,14.06-12.89,14.06-12.89,4.2-3.85.45-8.14,5.56-17.31,4.52-8.1,12.34-12.89,21.55-13.29,3.85-17.06,16.3-19.82,31.59-19.08,10.88-9.14,27-11.4,37.78-.25,12.66-5.6,28.18.48,32.4,14.12,24.97,5.34,19.94,21.27,22.35,23.84,15.51,13.36,12.94,27.01,7.19,44.22-.23,20.46,1.12,41.69,7.97,61.04,4.13,8.24-1.37,27.39-12.16,21.91l-1.35.16c7.16,5.69-5.04,11.12-10.15,12.43-18.93,3.68-23.27-9.9-31.57-13.87-18.57-8.15-33.54-7.54-45.39-18.21l-1.4.4ZM606.57,595.46c-16.61,20.78-47.35,28.53-73.18,28.21-1.09.07-.65-4.05-.04-5.13,12.16-24.46,28.1-47.19,52.73-60.21-29.03,8.93-45.72,32.76-55,60.62-13.29,28.85,69.33,10.08,81.52-28.8l-.41-1.57-5.62,6.86ZM652.02,620.7c-1.37-4.35-4.97-7.46-9.08-7.28,6.47,10,7.65,20.02,21.89,12.45-3.17-5.75-11.55-1.16-12.81-5.17ZM606.82,662.61l-1.21-.11,1.21.11ZM693.94,680.92l-2.18-1.46,1.12,2.04,1.06-.58ZM694.46,681.6l-.84.87.65.59.82-.75-.63-.72Z" fill="#fff"></path><path d="M170.38,1013.94c1.82,3.39,1.26,9.46-3.13,10.84l-34.5.19c-14.25-4.24-5.16-22.79-12.04-29.54-3.44-3.38-6.79-7.27-5.79-12.21,2.45-15.2,7.68-30.06,11.04-44.99,5.02-21.17,7.03-51.72,8.65-73.67,10.55-36.6,39.14-7.23,40.91-95.2,15.62,21.98,49.39,55.4,35.47,83.39-9.12,12.83-21.71,14.81-25.21,32.98-1.91,9.92-10.8,16.63-14.9,26.63-8.72,21.24-12.41,47.52-13.49,70.86-.64,9.79,9.21,22.22,13,30.73Z" fill="#fff"></path></g><polygon id="lockup-cross" points="1316.14 506.54 1115.47 506.54 1115.47 305.88 1050.14 305.88 1050.14 506.54 849.47 506.54 849.47 571.88 1050.14 571.88 1050.14 1005.88 1115.47 1005.88 1115.47 571.88 1316.14 571.88 1316.14 506.54" fill="#fff"></polygon></g></svg>