<?xml version="1.0"?><svg id="AB1-sjb-lamb" xmlns="http://www.w3.org/2000/svg" viewBox="0 0 1024 1024"><g id="lamb-sjb-green"><path d="M762.54,378.28c2.78,3.86,11.44,9.91,10.35,15.3-4,16.38-4.54,21.7-16.75,34.73-4.81,5.13-.1,14.34-7.03,30.33-5.86,13.51-14.75,14.72-15.04,21.54-1.37,32.99-21.38,43.07-33.02,54.99l-13.02,13.32c-8.99,32.87-9.39,70,7.95,97.65,6.2,10.99,10.3,21.82,10.85,34.55,1.39,32.61,16.36,62.32,31.9,90.29,8.09,13.97,5.87,23.2,13.21,31.5,5.65,7.31,35.28,37.43,15.5,41.44,0,0-41.7-.14-41.7-.14-12.72-.64-12.67-16.49-15.22-25.33-2.38-10.27-16.26-8.61-17.77-14.75-11.01-39.86-11.44-74.11-41.66-108.16-12.09-14.07-8.6-34.5-22.07-48.13-5.34-7.24-15.63-22.55-19.87-30.46,5.55-10.28,10.32-19.17,17.07-28.37,16.84-6.35,36-14.15,47.09-28.99l-23.88,12.09-24.52,6.9c-11.23,2.52-31.32,44.4-37.04,55.71-10.71,21.56-6.39,42.61-14.91,56.74-5.77,10.06-13.96,21.14-16.8,32.48,0,0-4.73,19.5-4.73,19.5-3.21,17.54-11.86,50.22-3.85,66.23,3.9,8.18,20.55,26.99,8.87,34.41l-44.64.16c-3.83-1.16-8.97-4.6-9.26-8.61l-1.49-20.08c-.21-2.89-1.57-8.67-3.83-10.17-16.74-8.88.06-32.51,2.69-44.76,9.72-27.62,18.86-54.06,15.86-83.79-.99-9.77-.51-19.09,1.87-28.64,3.57-14.32,7.52-29,6.5-43.84-1.72-24.99-13.29-45.9.88-79.07-11.86,13.06-15,30.75-11.51,48.08l-13.62,2.09c-16.11,2.48-23.27-4.3-31.44-2.18-26.5,6.88-39.34-3.68-55.32-5.66-13.19-.91-27.31-6.42-39.51-11.21-1.07-.4-2.67-2.89-2.78-3.61,6.35-20.56,3.89-41.99-7.74-59.57l-.97.6c18.61,53-18.95,105.09-41.41,150.69-9.78,40.5,13.13,88.97,32.65,124.79,8.18,14.06,6.07,25.83,15.28,35.48,8.87,9.67,31.72,34.79,13.07,39.41,0,0-42.03.13-42.03.13-11.55-.45-12.66-11.38-14.89-19.83-.98-18.09-15.94-10.63-19.06-24.1-5.06-40.07-26.87-78.24-44.99-113.57,0,0-9.81-20-9.81-20-3.86-7.87-1.03-17.69,2.74-25.32,39.68-75.48-76.37-120.57-56.18-195.63-.04-2.48-.68-2.9-1.81-.42-5.76,14.08-4.83,26.93-2.62,41.28,4.4,19.25-16.21,45.82-35,35.15-9.03-4.61-2.8-17.74-1.59-24.85,1.28-5.49-13.35-22.27,3.82-66.84,66.06-137.86,177.92-130.22,309.64-107.99,14.93,1.95,29.82,1.54,44.84.1,23.79-2.29,43.36-13.25,73.39-11.02,20.55,1.05,38.24-11.98,54.53-22.78,5.19-2.87,14.7-12.71,18.65-17.18,0,0,18.15-16.64,18.15-16.64,5.42-4.97.58-10.51,7.18-22.34,5.84-10.46,15.92-16.64,27.81-17.15,4.97-22.02,21.04-25.58,40.77-24.63,14.04-11.8,34.86-14.71,48.76-.32,16.35-7.22,36.37.62,41.82,18.23,32.23,6.89,25.74,27.45,28.84,30.77,20.01,17.24,16.7,34.86,9.28,57.08-.3,26.41,1.44,53.81,10.29,78.79,5.33,10.63-1.77,35.35-15.7,28.28l-1.74.2c9.25,7.35-6.51,14.35-13.1,16.05-24.44,4.75-30.04-12.78-40.75-17.91-23.97-10.52-43.29-9.74-58.58-23.51l-1.81.51ZM762.84,289.49c-21.44,26.83-61.12,36.82-94.46,36.42-1.41.09-.84-5.23-.05-6.62,15.7-31.57,36.27-60.91,68.06-77.71-37.48,11.52-59.01,42.29-70.99,78.25-17.15,37.24,89.49,13.02,105.23-37.17l-.53-2.03-7.25,8.86ZM821.5,322.06c-1.77-5.62-6.42-9.63-11.72-9.39,8.35,12.9,9.87,25.84,28.26,16.07-4.1-7.42-14.91-1.5-16.53-6.67ZM763.16,376.16l-1.56-.15,1.56.15ZM875.6,399.79l-2.81-1.89,1.45,2.63,1.37-.75ZM876.27,400.67l-1.09,1.13.84.76,1.06-.96-.81-.93Z" fill="#2e7d32"></path><path d="M199.81,829.64c2.35,4.38,1.62,12.22-4.04,13.99l-44.53.24c-18.39-5.47-6.66-29.42-15.54-38.13-4.45-4.36-8.77-9.39-7.47-15.77,3.17-19.61,9.92-38.8,14.25-58.07,6.48-27.33,9.07-66.76,11.16-95.09,13.62-47.24,50.52-9.34,52.81-122.88,20.17,28.37,63.74,71.5,45.78,107.63-11.78,16.57-28.03,19.12-32.54,42.57-2.46,12.8-13.94,21.47-19.24,34.38-11.25,27.41-16.02,61.33-17.42,91.46-.82,12.64,11.89,28.68,16.77,39.67Z" fill="#2e7d32"></path></g></svg>